<svg xmlns="http://www.w3.org/2000/svg" version="1.1" xmlns:xlink="http://www.w3.org/1999/xlink" xmlns:svgjs="http://svgjs.dev/svgjs" width="500" height="500" viewBox="0 0 1500 1500">
    <rect width="1500" height="1500" fill="#e8772e" rx="750" ry="750"></rect>
    <g transform="matrix(0.6666666666666666,0,0,0.6666666666666666,250.34272823537225,219.657900101937)">
        <svg viewBox="0 0 308 327" data-background-color="#e8772e" preserveAspectRatio="xMidYMid meet" height="1592" width="1500" xmlns="http://www.w3.org/2000/svg" xmlns:xlink="http://www.w3.org/1999/xlink">
            <g id="tight-bounds" transform="matrix(1,0,0,1,0.09462258378883348,-0.10000000000002274)">
                <svg viewBox="0 0 308.0109377127057 327.2" height="327.2" width="308.0109377127057">
                    <g>
                        <svg viewBox="0 0 395.52 420.1608714321367" height="327.2" width="308.0109377127057">
                            <g transform="matrix(1,0,0,1,0,215.08041296195145)">
                                <svg viewBox="0 0 395.52 205.08045847018522" height="205.08045847018522" width="395.52">
                                    <g id="textblocktransform">
                                        <svg viewBox="0 0 395.52 205.08045847018522" height="205.08045847018522" width="395.52" id="textblock">
                                            <g>
                                                <svg viewBox="0 0 395.52 147.2031276019053" height="147.2031276019053" width="395.52">
                                                    <g transform="matrix(1,0,0,1,0,0)">
                                                        <svg width="395.52" viewBox="-0.0958 -15.110537100671865 103.98857388931187 38.727249094966886" height="147.2031276019053" data-palette-color="#ecab55"><path d="M0.69 12.323c-0.412-0.172-0.674-0.392-0.786-0.662-0.111-0.27-0.085-0.602 0.079-0.996v0l10.377-24.948c0.172-0.412 0.39-0.668 0.655-0.767 0.268-0.105 0.608-0.072 1.02 0.099v0l7.867 3.272c3.656 1.521 6.131 3.817 7.423 6.889 1.29 3.078 0.947 6.993-1.03 11.746v0c-1.987 4.777-4.527 7.792-7.619 9.047-3.09 1.249-6.463 1.113-10.119-0.407v0zM4.176 10.297l5.355 2.227c2.628 1.093 5.103 1.115 7.424 0.067 2.327-1.047 4.259-3.416 5.795-7.11v0c1.034-2.487 1.5-4.683 1.397-6.589-0.099-1.897-0.656-3.482-1.671-4.756-1.018-1.268-2.373-2.254-4.066-2.959v0l-5.355-2.227zM38.313 23.426c-3.466-0.489-5.912-1.76-7.34-3.812-1.428-2.046-1.879-4.934-1.353-8.664v0c0.522-3.697 1.74-6.39 3.655-8.079 1.915-1.689 4.473-2.308 7.674-1.856v0c2.852 0.402 4.873 1.63 6.065 3.683 1.185 2.052 1.525 4.867 1.021 8.446v0c-0.021 0.152-0.134 0.355-0.339 0.608-0.204 0.254-0.433 0.471-0.687 0.651-0.254 0.18-0.461 0.258-0.619 0.236v0l-13.19-1.861c-0.157 2.354 0.2 4.142 1.072 5.362 0.878 1.221 2.35 1.978 4.416 2.269v0c1.162 0.164 2.182 0.163 3.06-0.002 0.878-0.166 1.739-0.394 2.581-0.686v0c0.084-0.022 0.207-0.062 0.371-0.12 0.17-0.057 0.287-0.081 0.353-0.071v0c0.172 0.024 0.35 0.191 0.536 0.499 0.193 0.303 0.348 0.635 0.465 0.995 0.118 0.36 0.165 0.619 0.143 0.778v0c-0.048 0.343-0.449 0.677-1.202 1.002-0.747 0.332-1.719 0.565-2.916 0.699-1.191 0.135-2.446 0.109-3.766-0.077zM33.625 9.768l10.862 1.532c0.619-4.39-0.741-6.82-4.081-7.292v0c-3.591-0.507-5.851 1.413-6.781 5.76zM60.221 23.601c-0.991 0.073-1.575-0.105-1.754-0.533v0l-8.257-19.76c-0.114-0.272-0.173-0.449-0.179-0.528v0c-0.017-0.226 0.12-0.413 0.41-0.561 0.29-0.148 0.744-0.245 1.363-0.291v0l0.209-0.015c0.977-0.072 1.556 0.11 1.735 0.545v0l5.262 13.11c0.429 1.018 0.939 2.411 1.53 4.179v0l0.332 0.979 0.19-0.014 0.187-1.277c0.224-1.688 0.454-3.015 0.691-3.982v0l3.337-13.841c0.114-0.456 0.672-0.721 1.676-0.794v0l0.12-0.009c1.057-0.077 1.603 0.123 1.638 0.602v0c0.011 0.153-0.028 0.346-0.118 0.58v0l-5.269 20.721c-0.107 0.449-0.66 0.71-1.657 0.783v0zM72.391-5.535c-1.105 0.218-1.718 0.023-1.838-0.585v0l-0.483-2.443c-0.12-0.608 0.372-1.022 1.478-1.239v0l0.491-0.097c1.118-0.221 1.738-0.027 1.857 0.581v0l0.483 2.442c0.12 0.608-0.379 1.023-1.497 1.244v0zM77.872 21.383c-1.099 0.217-1.708 0.025-1.827-0.577v0l-3.949-19.993c-0.12-0.608 0.369-1.021 1.468-1.238v0l0.166-0.033c1.118-0.221 1.738-0.027 1.858 0.581v0l3.95 19.993c0.119 0.602-0.381 1.013-1.499 1.234v0zM90.121 17.513c-0.561 0.212-0.992 0.297-1.294 0.255-0.31-0.047-0.52-0.216-0.631-0.51v0l-5.248-13.86c-0.651-1.721-1.202-2.931-1.652-3.63-0.45-0.699-0.689-1.086-0.718-1.161v0c-0.123-0.324 0.038-0.652 0.483-0.985 0.438-0.33 0.879-0.579 1.321-0.746v0c0.374-0.142 0.725-0.043 1.054 0.297 0.332 0.331 0.616 0.686 0.853 1.067 0.239 0.387 0.397 0.634 0.472 0.74v0c0.475-1.249 1.157-2.338 2.047-3.266 0.895-0.931 1.898-1.606 3.007-2.026v0c2.014-0.762 3.799-0.793 5.354-0.092 1.564 0.705 2.722 2.049 3.473 4.032v0l5.19 13.71c0.111 0.293 0.069 0.558-0.126 0.797-0.204 0.234-0.58 0.455-1.128 0.662v0l-0.178 0.067c-0.53 0.201-0.946 0.28-1.247 0.237-0.31-0.047-0.52-0.216-0.631-0.509v0l-5.063-13.374c-0.46-1.216-1.17-2.027-2.13-2.433-0.953-0.409-2.069-0.372-3.347 0.112v0c-0.885 0.335-1.683 0.922-2.391 1.761-0.705 0.83-1.222 1.799-1.552 2.907v0l5.467 14.44c0.111 0.293 0.069 0.558-0.126 0.796-0.204 0.234-0.571 0.451-1.1 0.652v0z" opacity="1" transform="matrix(1,0,0,1,0,0)" fill="#ecab55" class="wordmark-text-0" data-fill-palette-color="primary" id="text-0"></path></svg></g></svg></g><g transform="matrix(1,0,0,1,118.31980799999998,197.2029000607364)"><svg viewBox="0 0 158.88038400000002 7.87755840944882" height="7.87755840944882" width="158.88038400000002"><g transform="matrix(1,0,0,1,0,0)"><svg width="158.88038400000002" viewBox="2 -32.45 812.71 40.300000000000004" height="7.87755840944882" data-palette-color="#ecab55"><path d="M16.95 0.6Q12.45 0.6 9.05-1.3 5.65-3.2 3.83-6.68 2-10.15 2-14.85L2-14.85Q2-19.85 4.25-23.88 6.5-27.9 10.48-30.18 14.45-32.45 19.45-32.45L19.45-32.45Q21.3-32.45 23.23-32.18 25.15-31.9 26.48-31.63 27.8-31.35 28.15-31.25L28.15-31.25 28.35-30.95Q28.25-30.65 28.03-29.5 27.8-28.35 27.53-26.5 27.25-24.65 27.1-22.6L27.1-22.6 24.7-22.4Q24.75-22.65 24.8-23.33 24.85-24 24.85-24.85L24.85-24.85Q24.85-29.5 17.5-29.5L17.5-29.5Q14.2-29.5 11.7-27.9 9.2-26.3 7.85-23.38 6.5-20.45 6.5-16.5L6.5-16.5Q6.5-12.15 7.93-8.85 9.35-5.55 11.95-3.73 14.55-1.9 17.95-1.9L17.95-1.9Q21.35-1.9 23.43-3.83 25.5-5.75 26.45-9.8L26.45-9.8 28.85-10Q28.7-9.25 28.2-6.68 27.7-4.1 27.5-1.85L27.5-1.85 27.2-1.4Q27.2-1.35 25.68-0.83 24.15-0.3 21.88 0.15 19.6 0.6 16.95 0.6L16.95 0.6ZM45.15 0.45Q40.7 0.45 38.37-1.75 36.05-3.95 36.05-8.1L36.05-8.1 36.05-20.85Q36.05-22.1 35.75-22.53 35.45-22.95 34.55-22.95L34.55-22.95 33.2-22.9 33.1-23.05 33.4-25Q33.95-25 35.4-24.95 36.85-24.9 38.35-24.9L38.35-24.9Q39.45-24.9 40.9-25.03 42.35-25.15 42.8-25.2L42.8-25.2 42.6-23.2Q41.15-23 40.65-22.55 40.15-22.1 40.05-21L40.05-21 39.75-9.55Q39.75-6 41.4-4.08 43.05-2.15 46.15-2.15L46.15-2.15Q49.3-2.15 50.92-3.73 52.55-5.3 52.55-8.3L52.55-8.3Q52.55-11.4 52.47-15.33 52.4-19.25 52.35-20.85L52.35-20.85Q52.25-22.2 52-22.58 51.75-22.95 50.9-22.95L50.9-22.95 49.2-22.9 49.15-23.05 49.45-25Q49.95-25 51.32-24.95 52.7-24.9 54.1-24.9L54.1-24.9Q55.25-24.9 56.57-25.03 57.9-25.15 58.3-25.2L58.3-25.2 58.15-23.2Q56.4-22.95 55.9-22.55 55.4-22.15 55.4-21.05L55.4-21.05 55.4-8.25Q55.4-4.1 52.72-1.83 50.05 0.45 45.15 0.45L45.15 0.45ZM81.59 0.6Q80.5 0.6 79.34-0.38 78.2-1.35 77.25-3.05L77.25-3.05 73.05-10.4 69.8-10.4 69.7-5.05Q69.7-3.6 69.9-2.98 70.09-2.35 70.67-2.15 71.25-1.95 72.65-1.9L72.65-1.9 72.75-1.75 72.34 0.15Q71.75 0.1 70.17 0.08 68.59 0.05 67 0.05L67 0.05Q65.45 0.05 64.3 0.1 63.15 0.15 62.75 0.2L62.75 0.2 63.09-1.85Q64.95-2.1 65.55-2.7 66.14-3.3 66.14-4.95L66.14-4.95 66.2-20.9Q66.2-22.1 65.89-22.53 65.59-22.95 64.75-22.95L64.75-22.95 63.34-22.9 63.2-23.1 63.5-25Q64-25 65.39-24.95 66.8-24.9 68.2-24.9L68.2-24.9Q69.65-24.9 71.3-24.98 72.95-25.05 73.55-25.05L73.55-25.05Q77.59-25.05 79.9-23.38 82.2-21.7 82.2-18.75L82.2-18.75Q82.2-16.45 80.65-14.5 79.09-12.55 76.3-11.3L76.3-11.3 80.55-4.9Q81.75-3.1 82.84-2.35 83.95-1.6 85.5-1.6L85.5-1.6 85.7-1.35 85.45 0.2 81.59 0.6ZM73.95-12.6Q74.9-13 75.62-13.38 76.34-13.75 77.25-14.95 78.15-16.15 78.15-18.05L78.15-18.05Q78.15-22.9 71-22.9L71-22.9Q70.59-22.9 70.45-22.73 70.3-22.55 70.3-22L70.3-22Q69.9-15.9 69.9-13L69.9-13 73.95-12.6ZM89.14 0.45L89.39-1.6Q91.29-1.95 91.94-2.63 92.59-3.3 92.59-4.95L92.59-4.95 92.64-20.85Q92.64-22.1 92.34-22.53 92.04-22.95 91.14-22.95L91.14-22.95 89.49-22.9 89.39-23.1 89.64-25Q89.94-25 91.27-24.95 92.59-24.9 94.74-24.9L94.74-24.9Q95.89-24.9 97.57-25.05 99.24-25.2 99.74-25.25L99.74-25.25 99.54-23.2Q97.89-23 97.34-22.58 96.79-22.15 96.69-21L96.69-21Q96.49-17 96.32-12.15 96.14-7.3 96.14-4.65L96.14-4.65Q96.14-3.05 96.49-2.5 96.84-1.95 97.89-1.95L97.89-1.95Q98.59-1.95 99.17-2 99.74-2.05 99.94-2.1L99.94-2.1 100.04-1.9 99.69 0.1Q99.09 0.1 97.44 0.05 95.79 0 94.14 0L94.14 0Q92.79 0 91.22 0.18 89.64 0.35 89.14 0.45L89.14 0.45ZM115.99 0.45Q112.59 0.45 109.97-1.05 107.34-2.55 105.92-5.3 104.49-8.05 104.49-11.65L104.49-11.65Q104.49-15.55 106.27-18.68 108.04-21.8 111.12-23.58 114.19-25.35 117.99-25.35L117.99-25.35Q121.44-25.35 124.09-23.85 126.74-22.35 128.19-19.63 129.64-16.9 129.64-13.3L129.64-13.3Q129.64-9.4 127.87-6.28 126.09-3.15 122.97-1.35 119.84 0.45 115.99 0.45L115.99 0.45ZM117.19-1.95Q120.84-1.95 123.09-4.58 125.34-7.2 125.34-11.55L125.34-11.55Q125.34-14.85 124.27-17.35 123.19-19.85 121.22-21.2 119.24-22.55 116.64-22.55L116.64-22.55Q113.09-22.55 110.92-19.95 108.74-17.35 108.74-13L108.74-13Q108.74-9.7 109.79-7.2 110.84-4.7 112.77-3.33 114.69-1.95 117.19-1.95L117.19-1.95ZM141.24 0.45Q139.49 0.45 138.01 0.15 136.54-0.15 135.66-0.48 134.79-0.8 134.59-0.9L134.59-0.9 134.34-1.35Q134.39-1.6 134.51-2.48 134.64-3.35 134.76-4.93 134.89-6.5 134.89-8.1L134.89-8.1 137.14-8.3Q137.14-5.6 137.56-4.28 137.99-2.95 139.04-2.45 140.09-1.95 142.24-1.95L142.24-1.95Q144.64-1.95 146.11-3 147.59-4.05 147.59-5.8L147.59-5.8Q147.59-6.95 146.76-7.83 145.94-8.7 144.86-9.3 143.79-9.9 141.44-11.05L141.44-11.05Q138.24-12.6 136.51-14.1 134.79-15.6 134.79-17.95L134.79-17.95Q134.79-20.05 136.06-21.75 137.34-23.45 139.59-24.4 141.84-25.35 144.59-25.35L144.59-25.35Q146.24-25.35 147.69-25.15 149.14-24.95 149.99-24.73 150.84-24.5 151.04-24.4L151.04-24.4 151.24-24.05Q151.14-23.5 150.79-21.58 150.44-19.65 150.29-17.45L150.29-17.45 148.34-17.25 148.04-17.45Q148.04-17.6 148.09-18.07 148.14-18.55 148.14-19.25L148.14-19.25Q148.14-21.2 147.11-21.98 146.09-22.75 143.49-22.75L143.49-22.75Q141.39-22.75 140.01-21.78 138.64-20.8 138.64-19.3L138.64-19.3Q138.64-17.8 140.01-16.75 141.39-15.7 144.19-14.35L144.19-14.35Q146.64-13.2 148.11-12.35 149.59-11.5 150.64-10.2 151.69-8.9 151.69-7.2L151.69-7.2Q151.69-4.95 150.36-3.23 149.04-1.5 146.66-0.53 144.29 0.45 141.24 0.45L141.24 0.45ZM157.28 0.45L157.53-1.6Q159.44-1.95 160.08-2.63 160.73-3.3 160.73-4.95L160.73-4.95 160.78-20.85Q160.78-22.1 160.48-22.53 160.19-22.95 159.28-22.95L159.28-22.95 157.63-22.9 157.53-23.1 157.78-25Q158.08-25 159.41-24.95 160.73-24.9 162.88-24.9L162.88-24.9Q164.03-24.9 165.71-25.05 167.38-25.2 167.88-25.25L167.88-25.25 167.69-23.2Q166.03-23 165.48-22.58 164.94-22.15 164.83-21L164.83-21Q164.63-17 164.46-12.15 164.28-7.3 164.28-4.65L164.28-4.65Q164.28-3.05 164.63-2.5 164.98-1.95 166.03-1.95L166.03-1.95Q166.73-1.95 167.31-2 167.88-2.05 168.08-2.1L168.08-2.1 168.19-1.9 167.83 0.1Q167.23 0.1 165.58 0.05 163.94 0 162.28 0L162.28 0Q160.94 0 159.36 0.18 157.78 0.35 157.28 0.45L157.28 0.45ZM175.08 0.2L175.43-1.8Q177.43-1.95 178.26-2.3 179.08-2.65 179.31-3.48 179.53-4.3 179.53-6.35L179.53-6.35 179.53-22.9Q176.38-22.8 175.28-22.55 174.18-22.3 173.66-21.38 173.13-20.45 172.78-17.9L172.78-17.9 170.43-17.75Q170.53-18.4 170.76-20.63 170.98-22.85 171.03-25L171.03-25 171.43-25.35 174.98-24.95 187.73-24.95 191.38-25.35 191.78-25Q191.83-22.8 192.03-20.65 192.23-18.5 192.33-17.9L192.33-17.9 190.03-17.75Q189.63-20.35 189.11-21.33 188.58-22.3 187.56-22.55 186.53-22.8 183.63-22.9L183.63-22.9Q183.38-20.5 183.18-14.93 182.98-9.35 182.98-4.65L182.98-4.65Q182.98-3.2 183.53-2.6 184.08-2 185.33-2L185.33-2Q186.23-2 186.81-2.05 187.38-2.1 187.53-2.1L187.53-2.1 187.68-1.95 187.33 0.15Q186.63 0.15 184.73 0.08 182.83 0 181.03 0L181.03 0Q179.23 0 177.48 0.08 175.73 0.15 175.08 0.2L175.08 0.2ZM199.63 0.45L199.93-1.6Q201.43-1.85 202.13-2.25 202.83-2.65 203.03-3.4 203.23-4.15 203.23-5.65L203.23-5.65 203.23-7.2Q203.23-8.35 202.98-9.25 202.73-10.15 202.03-11.5L202.03-11.5 198.28-18.7Q197.33-20.5 196.83-21.23 196.33-21.95 195.53-22.4 194.73-22.85 193.23-23L193.23-23 193.13-23.2 193.43-25Q193.88-25 195.25-24.95 196.63-24.9 198.13-24.9L198.13-24.9Q199.53-24.9 201.53-25.03 203.53-25.15 204.13-25.2L204.13-25.2 204.28-24.9 204.13-23.25Q202.43-23.15 201.8-22.88 201.18-22.6 201.18-21.9L201.18-21.9Q201.18-21.25 202.95-17.6 204.73-13.95 205.48-12.5L205.48-12.5 205.73-12.5 210.03-20.2Q210.68-21.35 210.68-22.1L210.68-22.1Q210.68-23.05 208.23-23.2L208.23-23.2 208.13-23.35 208.38-25.15Q208.68-25.15 210.38-25.03 212.08-24.9 213.18-24.9L213.18-24.9Q214.48-24.9 215.58-24.95 216.68-25 217.08-25.05L217.08-25.05 217.23-24.75 216.98-23.05Q215.63-22.75 214.88-22.25 214.13-21.75 213.55-20.95 212.98-20.15 211.68-18L211.68-18 207.63-11.1Q207.08-10.05 206.93-8.8 206.78-7.55 206.78-4.3L206.78-4.3Q206.78-3 207.18-2.5 207.58-2 208.63-2L208.63-2Q209.28-2 209.85-2.05 210.43-2.1 210.63-2.1L210.63-2.1 210.73-1.95 210.33 0.15Q209.73 0.1 208.08 0.05 206.43 0 204.73 0L204.73 0Q203.43 0 201.78 0.18 200.13 0.35 199.63 0.45L199.63 0.45ZM217.08 7.85L216.18 7.1 216.18 6.6Q217.93 5.4 219.03 3.75 220.13 2.1 220.13 0.55L220.13 0.55Q220.13-0.45 219.68-1.38 219.23-2.3 218.53-2.95L218.53-2.95 218.63-3.65Q220.33-4.95 221.53-4.95L221.53-4.95Q222.63-4.95 223.35-3.93 224.08-2.9 224.08-1.05L224.08-1.05Q224.08 1.55 221.98 3.88 219.88 6.2 217.08 7.85L217.08 7.85ZM239.77 0.4L240.12-1.9Q242.32-2.3 243.02-3.08 243.72-3.85 243.72-6L243.72-6 243.77-27Q243.77-28.6 243.4-29.15 243.02-29.7 241.92-29.7L241.92-29.7Q241.42-29.7 240.92-29.65 240.42-29.6 240.22-29.6L240.22-29.6 240.12-29.8 240.47-32Q241.07-31.95 242.72-31.9 244.37-31.85 246.02-31.85L246.02-31.85Q247.57-31.85 249.55-31.93 251.52-32 252.32-32.05L252.32-32.05Q257.52-32.05 260.27-29.75 263.02-27.45 263.02-23.15L263.02-23.15Q263.02-20.35 261.4-17.82 259.77-15.3 257.12-13.75 254.47-12.2 251.57-12.2L251.57-12.2 247.37-12.2 247.27-7.3Q247.27-4.9 247.42-3.88 247.57-2.85 248-2.53 248.42-2.2 249.47-2.2L249.47-2.2Q250.32-2.2 251.1-2.25 251.87-2.3 252.17-2.35L252.17-2.35 252.27-2.15 251.82 0.15Q251.32 0.1 250 0.05 248.67 0 247.22 0L247.22 0Q245.22 0 242.55 0.15 239.87 0.3 239.77 0.4L239.77 0.4ZM252.77-14.4Q255.77-14.9 257.3-16.85 258.82-18.8 258.82-22.2L258.82-22.2Q258.82-26.05 256.55-27.83 254.27-29.6 249.42-29.6L249.42-29.6Q248.52-29.6 248.32-29.5 248.12-29.4 248.07-28.9L248.07-28.9Q247.62-22.55 247.47-15.15L247.47-15.15 252.77-14.4ZM266.87 0.4L267.12-1.7Q268.97-1.9 269.62-2.6 270.27-3.3 270.27-5L270.27-5 270.32-20.85Q270.32-22.1 270.02-22.53 269.72-22.95 268.82-22.95L268.82-22.95 267.47-22.9 267.37-23.1 267.67-25Q268.27-25 270.02-24.95 271.77-24.9 273.82-24.9L273.82-24.9Q282.17-24.9 286.17-25.35L286.17-25.35 286.32-25.1Q286.22-24.55 285.87-22.6 285.52-20.65 285.37-18.4L285.37-18.4 282.97-18.2Q282.97-18.4 283.02-18.88 283.07-19.35 283.07-19.85L283.07-19.85Q283.07-21.15 282.69-21.68 282.32-22.2 281.14-22.38 279.97-22.55 277.07-22.55L277.07-22.55Q275.72-22.55 275.22-22.48 274.72-22.4 274.57-22.13 274.42-21.85 274.37-21.1L274.37-21.1 274.07-14 278.17-13.95Q279.07-13.95 280.82-14.13 282.57-14.3 283.12-14.35L283.12-14.35 283.32-14.1 282.72-11.5Q282.17-11.5 280.54-11.55 278.92-11.6 277.12-11.6L277.12-11.6Q275.72-11.6 273.97-11.35L273.97-11.35Q273.82-7.55 273.82-4.5L273.82-4.5Q273.82-3.35 273.99-2.9 274.17-2.45 274.79-2.3 275.42-2.15 276.87-2.15L276.87-2.15Q280.12-2.15 281.52-2.45 282.92-2.75 283.49-3.68 284.07-4.6 284.42-6.85L284.42-6.85 286.62-7.05 286.82-6.8Q286.67-6.25 286.29-4.23 285.92-2.2 285.72 0L285.72 0 285.42 0.25Q284.07 0.2 279.82 0.1 275.57 0 272.92 0L272.92 0Q270.87 0 269.12 0.18 267.37 0.35 266.87 0.4L266.87 0.4ZM311.12 0.6Q310.02 0.6 308.87-0.38 307.72-1.35 306.77-3.05L306.77-3.05 302.57-10.4 299.32-10.4 299.22-5.05Q299.22-3.6 299.42-2.98 299.62-2.35 300.19-2.15 300.77-1.95 302.17-1.9L302.17-1.9 302.27-1.75 301.87 0.15Q301.27 0.1 299.69 0.08 298.12 0.05 296.52 0.05L296.52 0.05Q294.97 0.05 293.82 0.1 292.67 0.15 292.27 0.2L292.27 0.2 292.62-1.85Q294.47-2.1 295.07-2.7 295.67-3.3 295.67-4.95L295.67-4.95 295.72-20.9Q295.72-22.1 295.42-22.53 295.12-22.95 294.27-22.95L294.27-22.95 292.87-22.9 292.72-23.1 293.02-25Q293.52-25 294.92-24.95 296.32-24.9 297.72-24.9L297.72-24.9Q299.17-24.9 300.82-24.98 302.47-25.05 303.07-25.05L303.07-25.05Q307.12-25.05 309.42-23.38 311.72-21.7 311.72-18.75L311.72-18.75Q311.72-16.45 310.17-14.5 308.62-12.55 305.82-11.3L305.82-11.3 310.07-4.9Q311.27-3.1 312.37-2.35 313.47-1.6 315.02-1.6L315.02-1.6 315.22-1.35 314.97 0.2 311.12 0.6ZM303.47-12.6Q304.42-13 305.14-13.38 305.87-13.75 306.77-14.95 307.67-16.15 307.67-18.05L307.67-18.05Q307.67-22.9 300.52-22.9L300.52-22.9Q300.12-22.9 299.97-22.73 299.82-22.55 299.82-22L299.82-22Q299.42-15.9 299.42-13L299.42-13 303.47-12.6ZM325.56 0.45Q323.81 0.45 322.34 0.15 320.86-0.15 319.99-0.48 319.11-0.8 318.91-0.9L318.91-0.9 318.66-1.35Q318.71-1.6 318.84-2.48 318.96-3.35 319.09-4.93 319.21-6.5 319.21-8.1L319.21-8.1 321.46-8.3Q321.46-5.6 321.89-4.28 322.31-2.95 323.36-2.45 324.41-1.95 326.56-1.95L326.56-1.95Q328.96-1.95 330.44-3 331.91-4.05 331.91-5.8L331.91-5.8Q331.91-6.95 331.09-7.83 330.26-8.7 329.19-9.3 328.11-9.9 325.76-11.05L325.76-11.05Q322.56-12.6 320.84-14.1 319.11-15.6 319.11-17.95L319.11-17.95Q319.11-20.05 320.39-21.75 321.66-23.45 323.91-24.4 326.16-25.35 328.91-25.35L328.91-25.35Q330.56-25.35 332.01-25.15 333.46-24.95 334.31-24.73 335.16-24.5 335.36-24.4L335.36-24.4 335.56-24.05Q335.46-23.5 335.11-21.58 334.76-19.65 334.61-17.45L334.61-17.45 332.66-17.25 332.36-17.45Q332.36-17.6 332.41-18.07 332.46-18.55 332.46-19.25L332.46-19.25Q332.46-21.2 331.44-21.98 330.41-22.75 327.81-22.75L327.81-22.75Q325.71-22.75 324.34-21.78 322.96-20.8 322.96-19.3L322.96-19.3Q322.96-17.8 324.34-16.75 325.71-15.7 328.51-14.35L328.51-14.35Q330.96-13.2 332.44-12.35 333.91-11.5 334.96-10.2 336.01-8.9 336.01-7.2L336.01-7.2Q336.01-4.95 334.69-3.23 333.36-1.5 330.99-0.53 328.61 0.45 325.56 0.45L325.56 0.45ZM341.61 0.45L341.86-1.6Q343.76-1.95 344.41-2.63 345.06-3.3 345.06-4.95L345.06-4.95 345.11-20.85Q345.11-22.1 344.81-22.53 344.51-22.95 343.61-22.95L343.61-22.95 341.96-22.9 341.86-23.1 342.11-25Q342.41-25 343.74-24.95 345.06-24.9 347.21-24.9L347.21-24.9Q348.36-24.9 350.04-25.05 351.71-25.2 352.21-25.25L352.21-25.25 352.01-23.2Q350.36-23 349.81-22.58 349.26-22.15 349.16-21L349.16-21Q348.96-17 348.79-12.15 348.61-7.3 348.61-4.65L348.61-4.65Q348.61-3.05 348.96-2.5 349.31-1.95 350.36-1.95L350.36-1.95Q351.06-1.95 351.64-2 352.21-2.05 352.41-2.1L352.41-2.1 352.51-1.9 352.16 0.1Q351.56 0.1 349.91 0.05 348.26 0 346.61 0L346.61 0Q345.26 0 343.69 0.18 342.11 0.35 341.61 0.45L341.61 0.45ZM364.46 0.45Q362.71 0.45 361.23 0.15 359.76-0.15 358.88-0.48 358.01-0.8 357.81-0.9L357.81-0.9 357.56-1.35Q357.61-1.6 357.73-2.48 357.86-3.35 357.98-4.93 358.11-6.5 358.11-8.1L358.11-8.1 360.36-8.3Q360.36-5.6 360.78-4.28 361.21-2.95 362.26-2.45 363.31-1.95 365.46-1.95L365.46-1.95Q367.86-1.95 369.33-3 370.81-4.05 370.81-5.8L370.81-5.8Q370.81-6.95 369.98-7.83 369.16-8.7 368.08-9.3 367.01-9.9 364.66-11.05L364.66-11.05Q361.46-12.6 359.73-14.1 358.01-15.6 358.01-17.95L358.01-17.95Q358.01-20.05 359.28-21.75 360.56-23.45 362.81-24.4 365.06-25.35 367.81-25.35L367.81-25.35Q369.46-25.35 370.91-25.15 372.36-24.95 373.21-24.73 374.06-24.5 374.26-24.4L374.26-24.4 374.46-24.05Q374.36-23.5 374.01-21.58 373.66-19.65 373.51-17.45L373.51-17.45 371.56-17.25 371.26-17.45Q371.26-17.6 371.31-18.07 371.36-18.55 371.36-19.25L371.36-19.25Q371.36-21.2 370.33-21.98 369.31-22.75 366.71-22.75L366.71-22.75Q364.61-22.75 363.23-21.78 361.86-20.8 361.86-19.3L361.86-19.3Q361.86-17.8 363.23-16.75 364.61-15.7 367.41-14.35L367.41-14.35Q369.86-13.2 371.33-12.35 372.81-11.5 373.86-10.2 374.91-8.9 374.91-7.2L374.91-7.2Q374.91-4.95 373.58-3.23 372.26-1.5 369.88-0.53 367.51 0.45 364.46 0.45L364.46 0.45ZM383.36 0.2L383.71-1.8Q385.71-1.95 386.53-2.3 387.36-2.65 387.58-3.48 387.81-4.3 387.81-6.35L387.81-6.35 387.81-22.9Q384.66-22.8 383.56-22.55 382.46-22.3 381.93-21.38 381.41-20.45 381.06-17.9L381.06-17.9 378.71-17.75Q378.81-18.4 379.03-20.63 379.26-22.85 379.31-25L379.31-25 379.71-25.35 383.26-24.95 396.01-24.95 399.66-25.35 400.06-25Q400.11-22.8 400.31-20.65 400.51-18.5 400.61-17.9L400.61-17.9 398.31-17.75Q397.91-20.35 397.38-21.33 396.86-22.3 395.83-22.55 394.81-22.8 391.91-22.9L391.91-22.9Q391.66-20.5 391.46-14.93 391.26-9.35 391.26-4.65L391.26-4.65Q391.26-3.2 391.81-2.6 392.36-2 393.61-2L393.61-2Q394.51-2 395.08-2.05 395.66-2.1 395.81-2.1L395.81-2.1 395.96-1.95 395.61 0.15Q394.91 0.15 393.01 0.08 391.11 0 389.31 0L389.31 0Q387.51 0 385.76 0.08 384.01 0.15 383.36 0.2L383.36 0.2ZM404.25 0.4L404.5-1.7Q406.35-1.9 407-2.6 407.65-3.3 407.65-5L407.65-5 407.7-20.85Q407.7-22.1 407.4-22.53 407.1-22.95 406.2-22.95L406.2-22.95 404.85-22.9 404.75-23.1 405.05-25Q405.65-25 407.4-24.95 409.15-24.9 411.2-24.9L411.2-24.9Q419.55-24.9 423.55-25.35L423.55-25.35 423.7-25.1Q423.6-24.55 423.25-22.6 422.9-20.65 422.75-18.4L422.75-18.4 420.35-18.2Q420.35-18.4 420.4-18.88 420.45-19.35 420.45-19.85L420.45-19.85Q420.45-21.15 420.08-21.68 419.7-22.2 418.53-22.38 417.35-22.55 414.45-22.55L414.45-22.55Q413.1-22.55 412.6-22.48 412.1-22.4 411.95-22.13 411.8-21.85 411.75-21.1L411.75-21.1 411.45-14 415.55-13.95Q416.45-13.95 418.2-14.13 419.95-14.3 420.5-14.35L420.5-14.35 420.7-14.1 420.1-11.5Q419.55-11.5 417.93-11.55 416.3-11.6 414.5-11.6L414.5-11.6Q413.1-11.6 411.35-11.35L411.35-11.35Q411.2-7.55 411.2-4.5L411.2-4.5Q411.2-3.35 411.38-2.9 411.55-2.45 412.18-2.3 412.8-2.15 414.25-2.15L414.25-2.15Q417.5-2.15 418.9-2.45 420.3-2.75 420.88-3.68 421.45-4.6 421.8-6.85L421.8-6.85 424-7.05 424.2-6.8Q424.05-6.25 423.68-4.23 423.3-2.2 423.1 0L423.1 0 422.8 0.25Q421.45 0.2 417.2 0.1 412.95 0 410.3 0L410.3 0Q408.25 0 406.5 0.18 404.75 0.35 404.25 0.4L404.25 0.4ZM450.05-6.8L450-21.25Q450-22.9 448.65-22.9L448.65-22.9 447.15-22.9 447.05-23.1 447.4-25.05Q447.85-25 449.1-24.95 450.35-24.9 451.65-24.9L451.65-24.9Q452.75-24.9 454.13-25.03 455.5-25.15 455.9-25.2L455.9-25.2 455.7-23.15Q454.25-22.95 453.63-22.38 453-21.8 452.95-20.65L452.95-20.65 452.35 0.85 450.4 1.4Q445.65-5.55 440.8-12.2 435.95-18.85 435.95-18.75L435.95-18.75 435.7-18.75 435.55-3.6Q435.55-2.65 435.85-2.3 436.15-1.95 436.85-1.95L436.85-1.95 438.85-2 439-1.85 438.6 0.15Q438.15 0.1 436.83 0.05 435.5 0 434.05 0L434.05 0Q432.9 0 431.6 0.13 430.3 0.25 429.9 0.3L429.9 0.3 430.15-1.75Q431.4-1.9 432-2.48 432.6-3.05 432.65-4.2L432.65-4.2 433.2-20.7Q433.2-21.95 432.48-22.43 431.75-22.9 429.7-23.15L429.7-23.15 429.5-23.4 429.85-25.1Q430.25-25.05 431.38-24.98 432.5-24.9 433.65-24.9L433.65-24.9Q434.75-24.9 435.6-24.95 436.45-25 436.7-25.05L436.7-25.05Q440.75-19.1 445.28-12.9 449.8-6.7 449.8-6.8L449.8-6.8 450.05-6.8ZM471.95 0.45Q466.3 0.45 463-2.8 459.7-6.05 459.7-11.65L459.7-11.65Q459.7-15.6 461.52-18.73 463.35-21.85 466.62-23.6 469.9-25.35 474.05-25.35L474.05-25.35Q475.55-25.35 477.17-25.15 478.8-24.95 479.92-24.7 481.05-24.45 481.35-24.4L481.35-24.4 481.55-24.1Q481.5-23.85 481.3-22.93 481.1-22 480.85-20.5 480.6-19 480.5-17.3L480.5-17.3 478-17.15Q478-17.3 478.05-17.85 478.1-18.4 478.1-19.1L478.1-19.1Q478.1-22.6 472.5-22.6L472.5-22.6Q468.6-22.6 466.35-20.03 464.1-17.45 464.1-12.95L464.1-12.95Q464.1-7.95 466.47-5 468.85-2.05 472.85-2.05L472.85-2.05Q475.5-2.05 477.07-3.48 478.65-4.9 479.35-7.95L479.35-7.95 481.85-8.15Q481.7-7.55 481.32-5.45 480.95-3.35 480.8-1.5L480.8-1.5 480.5-1.1Q480.2-1 479.07-0.63 477.95-0.25 476.05 0.1 474.15 0.45 471.95 0.45L471.95 0.45ZM487 0.4L487.25-1.7Q489.1-1.9 489.75-2.6 490.4-3.3 490.4-5L490.4-5 490.45-20.85Q490.45-22.1 490.15-22.53 489.85-22.95 488.95-22.95L488.95-22.95 487.6-22.9 487.5-23.1 487.8-25Q488.4-25 490.15-24.95 491.9-24.9 493.95-24.9L493.95-24.9Q502.3-24.9 506.3-25.35L506.3-25.35 506.45-25.1Q506.35-24.55 506-22.6 505.65-20.65 505.5-18.4L505.5-18.4 503.1-18.2Q503.1-18.4 503.15-18.88 503.2-19.35 503.2-19.85L503.2-19.85Q503.2-21.15 502.82-21.68 502.45-22.2 501.27-22.38 500.1-22.55 497.2-22.55L497.2-22.55Q495.85-22.55 495.35-22.48 494.85-22.4 494.7-22.13 494.55-21.85 494.5-21.1L494.5-21.1 494.2-14 498.3-13.95Q499.2-13.95 500.95-14.13 502.7-14.3 503.25-14.35L503.25-14.35 503.45-14.1 502.85-11.5Q502.3-11.5 500.67-11.55 499.05-11.6 497.25-11.6L497.25-11.6Q495.85-11.6 494.1-11.35L494.1-11.35Q493.95-7.55 493.95-4.5L493.95-4.5Q493.95-3.35 494.12-2.9 494.3-2.45 494.92-2.3 495.55-2.15 497-2.15L497-2.15Q500.25-2.15 501.65-2.45 503.05-2.75 503.62-3.68 504.2-4.6 504.55-6.85L504.55-6.85 506.75-7.05 506.95-6.8Q506.8-6.25 506.42-4.23 506.05-2.2 505.85 0L505.85 0 505.55 0.25Q504.2 0.2 499.95 0.1 495.7 0 493.05 0L493.05 0Q491 0 489.25 0.18 487.5 0.35 487 0.4L487 0.4ZM513.74 7.85L512.84 7.1 512.84 6.6Q514.59 5.4 515.69 3.75 516.79 2.1 516.79 0.55L516.79 0.55Q516.79-0.45 516.34-1.38 515.89-2.3 515.19-2.95L515.19-2.95 515.29-3.65Q516.99-4.95 518.19-4.95L518.19-4.95Q519.29-4.95 520.02-3.93 520.74-2.9 520.74-1.05L520.74-1.05Q520.74 1.55 518.64 3.88 516.54 6.2 513.74 7.85L513.74 7.85ZM549.89 0.5L549.74 0.15 549.94-1.8Q552.49-2 553.44-2.4 554.39-2.8 554.39-3.7L554.39-3.7Q554.39-4.7 553.94-6.1L553.94-6.1 552.29-11.55Q551.09-11.6 547.09-11.6L547.09-11.6Q544.69-11.6 541.64-11.2L541.64-11.2 539.79-6Q539.34-4.65 539.34-4.05L539.34-4.05Q539.34-2.95 540.04-2.48 540.74-2 542.34-2L542.34-2 545.19-2 545.29-1.8 544.99 0.35Q544.39 0.3 542.24 0.15 540.09 0 538.04 0L538.04 0Q536.19 0 534.61 0.05 533.04 0.1 532.54 0.15L532.54 0.15 532.94-2.2Q534.34-2.35 535.19-3.18 536.04-4 536.84-6.05L536.84-6.05 546.59-31.6 549.74-32.45 550.14-32.45Q550.44-31.25 551.66-26.9 552.89-22.55 554.66-16.6 556.44-10.65 558.09-5.65L558.09-5.65Q558.69-3.8 559.69-3.05 560.69-2.3 562.89-2.1L562.89-2.1 562.99-1.9 562.64 0.15Q562.04 0.15 560.46 0.08 558.89 0 557.34 0L557.34 0Q554.94 0 552.71 0.2 550.49 0.4 549.89 0.5L549.89 0.5ZM542.54-13.65L546.94-13.65Q548.74-13.65 551.59-13.9L551.59-13.9 547.64-27 547.29-27 542.54-13.65ZM576.04 0.45Q575.39 0.35 573.41 0.18 571.44 0 570.09 0L570.09 0Q568.79 0 567.24 0.18 565.69 0.35 565.24 0.45L565.24 0.45 565.49-1.65Q567.29-1.95 567.94-2.65 568.59-3.35 568.59-4.95L568.59-4.95 568.64-20.85Q568.64-22.1 568.34-22.53 568.04-22.95 567.19-22.95L567.19-22.95Q566.74-22.95 566.34-22.9 565.94-22.85 565.79-22.85L565.79-22.85 565.69-23.1 565.99-25Q566.49-25 567.81-24.95 569.14-24.9 570.49-24.9L570.49-24.9Q572.29-24.9 574.19-24.98 576.09-25.05 576.79-25.05L576.79-25.05Q580.79-25.05 583.84-23.6 586.89-22.15 588.56-19.53 590.24-16.9 590.24-13.4L590.24-13.4Q590.24-9.5 588.36-6.35 586.49-3.2 583.24-1.38 579.99 0.45 576.04 0.45L576.04 0.45ZM574.14-22.7Q573.34-22.7 573.06-22.53 572.79-22.35 572.74-21.8L572.74-21.8Q572.14-7.75 572.14-5.3L572.14-5.3Q572.14-3.95 572.54-3.23 572.94-2.5 573.94-2.23 574.94-1.95 576.89-1.95L576.89-1.95Q581.09-1.95 583.46-4.7 585.84-7.45 585.84-12.4L585.84-12.4Q585.84-17.45 582.84-20.08 579.84-22.7 574.14-22.7L574.14-22.7ZM605.98 0.35L605.83 0.1 605.98-1.7Q608.08-1.85 608.81-2.15 609.53-2.45 609.53-3.15L609.53-3.15Q609.53-3.95 609.18-4.85L609.18-4.85 607.98-8.7Q606.98-8.75 603.83-8.75L603.83-8.75Q602.38-8.75 599.53-8.45L599.53-8.45 598.13-4.75Q597.78-3.6 597.78-3.35L597.78-3.35Q597.78-2.55 598.33-2.2 598.88-1.85 600.13-1.85L600.13-1.85 602.28-1.85 602.43-1.65 602.13 0.25Q601.63 0.2 599.86 0.1 598.08 0 596.38 0L596.38 0Q594.78 0 593.51 0.05 592.23 0.1 591.78 0.1L591.78 0.1 592.08-1.95Q593.18-2.1 593.83-2.73 594.48-3.35 595.13-4.85L595.13-4.85 602.98-24.7 606.53-25.35 606.88-25.3Q606.88-25.1 609.16-17.4 611.43-9.7 613.23-4.65L613.23-4.65Q613.73-3.2 614.51-2.63 615.28-2.05 616.98-1.9L616.98-1.9 617.08-1.7 616.83 0.1Q616.33 0.1 614.98 0.05 613.63 0 612.28 0L612.28 0Q610.23 0 608.38 0.15 606.53 0.3 605.98 0.35L605.98 0.35ZM600.33-10.8L603.73-10.8Q605.48-10.8 607.38-11L607.38-11 604.33-20.7 603.98-20.7 600.33-10.8ZM620.18 0.3L620.48-1.75Q622.23-2.05 622.81-2.68 623.38-3.3 623.38-4.95L623.38-4.95 623.43-20.85Q623.43-22.1 623.13-22.53 622.83-22.95 621.98-22.95L621.98-22.95 620.58-22.9 620.43-23.1 620.73-25Q620.98-25 622.21-24.95 623.43-24.9 625.43-24.9L625.43-24.9Q626.78-24.9 628.48-24.98 630.18-25.05 630.88-25.05L630.88-25.05Q635.38-25.05 637.66-23.15 639.93-21.25 639.93-17.95L639.93-17.95Q639.93-15.75 638.58-13.75 637.23-11.75 635.06-10.53 632.88-9.3 630.43-9.3L630.43-9.3 626.98-9.3 626.93-5.8Q626.93-4.05 627.06-3.28 627.18-2.5 627.53-2.25 627.88-2 628.73-2L628.73-2Q629.38-2 630.03-2.05 630.68-2.1 630.88-2.1L630.88-2.1 630.98-1.9 630.58 0.1Q630.13 0.1 628.93 0.05 627.73 0 626.48 0L626.48 0Q624.83 0 622.53 0.1 620.23 0.2 620.18 0.3L620.18 0.3ZM631.23-11.45Q635.88-12.2 635.88-17.25L635.88-17.25Q635.88-20.05 634.13-21.38 632.38-22.7 628.58-22.7L628.58-22.7Q627.88-22.7 627.73-22.63 627.58-22.55 627.53-22.1L627.53-22.1Q627.13-15.75 627.08-12L627.08-12 631.23-11.45ZM646.73 0.2L647.08-1.8Q649.08-1.95 649.9-2.3 650.73-2.65 650.95-3.48 651.18-4.3 651.18-6.35L651.18-6.35 651.18-22.9Q648.03-22.8 646.93-22.55 645.83-22.3 645.3-21.38 644.78-20.45 644.43-17.9L644.43-17.9 642.08-17.75Q642.18-18.4 642.4-20.63 642.63-22.85 642.68-25L642.68-25 643.08-25.35 646.63-24.95 659.38-24.95 663.03-25.35 663.43-25Q663.48-22.8 663.68-20.65 663.88-18.5 663.98-17.9L663.98-17.9 661.68-17.75Q661.28-20.35 660.75-21.33 660.23-22.3 659.2-22.55 658.18-22.8 655.28-22.9L655.28-22.9Q655.03-20.5 654.83-14.93 654.63-9.35 654.63-4.65L654.63-4.65Q654.63-3.2 655.18-2.6 655.73-2 656.98-2L656.98-2Q657.88-2 658.45-2.05 659.03-2.1 659.18-2.1L659.18-2.1 659.33-1.95 658.98 0.15Q658.28 0.15 656.38 0.08 654.48 0 652.68 0L652.68 0Q650.88 0 649.13 0.08 647.38 0.15 646.73 0.2L646.73 0.2ZM677.88 0.35L677.73 0.1 677.88-1.7Q679.98-1.85 680.7-2.15 681.43-2.45 681.43-3.15L681.43-3.15Q681.43-3.95 681.08-4.85L681.08-4.85 679.88-8.7Q678.88-8.75 675.73-8.75L675.73-8.75Q674.28-8.75 671.43-8.45L671.43-8.45 670.03-4.75Q669.68-3.6 669.68-3.35L669.68-3.35Q669.68-2.55 670.23-2.2 670.78-1.85 672.03-1.85L672.03-1.85 674.18-1.85 674.33-1.65 674.03 0.25Q673.53 0.2 671.75 0.1 669.98 0 668.28 0L668.28 0Q666.68 0 665.4 0.05 664.13 0.1 663.68 0.1L663.68 0.1 663.98-1.95Q665.08-2.1 665.73-2.73 666.38-3.35 667.03-4.85L667.03-4.85 674.88-24.7 678.43-25.35 678.78-25.3Q678.78-25.1 681.05-17.4 683.33-9.7 685.13-4.65L685.13-4.65Q685.63-3.2 686.4-2.63 687.18-2.05 688.88-1.9L688.88-1.9 688.98-1.7 688.73 0.1Q688.23 0.1 686.88 0.05 685.53 0 684.18 0L684.18 0Q682.13 0 680.28 0.15 678.43 0.3 677.88 0.35L677.88 0.35ZM672.23-10.8L675.63-10.8Q677.38-10.8 679.28-11L679.28-11 676.23-20.7 675.88-20.7 672.23-10.8ZM696.87 0Q695.57 0 693.97 0.18 692.37 0.35 691.87 0.45L691.87 0.45 692.12-1.6Q693.97-1.95 694.62-2.63 695.27-3.3 695.27-4.9L695.27-4.9 695.32-20.9Q695.32-22.1 695.02-22.53 694.72-22.95 693.87-22.95L693.87-22.95 692.47-22.9 692.32-23.1 692.62-25Q693.17-25 694.62-24.95 696.07-24.9 697.47-24.9L697.47-24.9Q698.92-24.9 700.5-24.98 702.07-25.05 702.67-25.1L702.67-25.1Q706.62-25.1 708.77-23.55 710.92-22 710.92-19.1L710.92-19.1Q710.92-17.1 709.65-15.5 708.37-13.9 706.27-13.1L706.27-13.1Q709.02-12.55 710.75-11.03 712.47-9.5 712.47-7.25L712.47-7.25Q712.47-5.15 711.15-3.4 709.82-1.65 707.55-0.63 705.27 0.4 702.57 0.4L702.57 0.4Q701.77 0.4 700.17 0.2L700.17 0.2Q697.97 0 696.87 0L696.87 0ZM699.07-13.9Q699.67-13.85 701.05-13.75 702.42-13.65 703.37-13.6L703.37-13.6Q703.37-13.5 704.37-14 705.37-14.5 706.17-15.55 706.97-16.6 706.97-18.35L706.97-18.35Q706.97-20.7 705.3-21.8 703.62-22.9 700.12-22.9L700.12-22.9Q699.72-22.9 699.6-22.73 699.47-22.55 699.42-22.05L699.42-22.05Q699.17-18.9 699.07-13.9L699.07-13.9ZM698.97-11.4L698.82-4.6Q698.82-3.2 699.82-2.63 700.82-2.05 703.27-2.05L703.27-2.05Q705.62-2.05 706.95-3.25 708.27-4.45 708.27-6.55L708.27-6.55Q708.27-8.5 706.97-9.75 705.67-11 703.12-11.45L703.12-11.45 698.97-11.4ZM717.72 0.45L717.97-1.6Q719.87-1.95 720.52-2.63 721.17-3.3 721.17-4.95L721.17-4.95 721.22-20.85Q721.22-22.1 720.92-22.53 720.62-22.95 719.72-22.95L719.72-22.95 718.07-22.9 717.97-23.1 718.22-25Q718.52-25 719.85-24.95 721.17-24.9 723.32-24.9L723.32-24.9Q724.47-24.9 726.15-25.05 727.82-25.2 728.32-25.25L728.32-25.25 728.12-23.2Q726.47-23 725.92-22.58 725.37-22.15 725.27-21L725.27-21Q725.07-17 724.9-12.15 724.72-7.3 724.72-4.65L724.72-4.65Q724.72-3.05 725.07-2.5 725.42-1.95 726.47-1.95L726.47-1.95Q727.17-1.95 727.75-2 728.32-2.05 728.52-2.1L728.52-2.1 728.62-1.9 728.27 0.1Q727.67 0.1 726.02 0.05 724.37 0 722.72 0L722.72 0Q721.37 0 719.8 0.18 718.22 0.35 717.72 0.45L717.72 0.45ZM734.07 0.4L734.37-1.7Q735.97-1.95 736.54-2.63 737.12-3.3 737.12-5L737.12-5 737.17-20.85Q737.17-22.1 736.87-22.53 736.57-22.95 735.67-22.95L735.67-22.95 734.32-22.9 734.17-23.1 734.47-25Q734.72-25 735.97-24.95 737.22-24.9 739.32-24.9L739.32-24.9Q740.42-24.9 742.04-25.05 743.67-25.2 744.17-25.25L744.17-25.25 743.97-23.15Q742.62-23 742.07-22.68 741.52-22.35 741.42-21.85 741.32-21.35 741.17-19.8L741.17-19.8Q740.67-13.1 740.67-4.95L740.67-4.95Q740.67-3.7 740.89-3.13 741.12-2.55 741.79-2.35 742.47-2.15 743.92-2.15L743.92-2.15Q746.32-2.15 747.44-2.55 748.57-2.95 749.14-4.13 749.72-5.3 750.17-7.85L750.17-7.85 752.37-8.1 752.52-7.8Q752.42-7.15 752.04-4.83 751.67-2.5 751.37 0.05L751.37 0.05 751.12 0.35Q749.97 0.3 746.24 0.15 742.52 0 739.97 0L739.97 0Q737.97 0 736.24 0.18 734.52 0.35 734.07 0.4L734.07 0.4ZM754.77 0.45L755.02-1.6Q756.92-1.95 757.57-2.63 758.22-3.3 758.22-4.95L758.22-4.95 758.27-20.85Q758.27-22.1 757.97-22.53 757.67-22.95 756.77-22.95L756.77-22.95 755.12-22.9 755.02-23.1 755.27-25Q755.57-25 756.89-24.95 758.22-24.9 760.37-24.9L760.37-24.9Q761.52-24.9 763.19-25.05 764.87-25.2 765.37-25.25L765.37-25.25 765.17-23.2Q763.52-23 762.97-22.58 762.42-22.15 762.32-21L762.32-21Q762.12-17 761.94-12.15 761.77-7.3 761.77-4.65L761.77-4.65Q761.77-3.05 762.12-2.5 762.47-1.95 763.52-1.95L763.52-1.95Q764.22-1.95 764.79-2 765.37-2.05 765.57-2.1L765.57-2.1 765.67-1.9 765.32 0.1Q764.72 0.1 763.07 0.05 761.42 0 759.77 0L759.77 0Q758.42 0 756.84 0.18 755.27 0.35 754.77 0.45L754.77 0.45ZM772.56 0.2L772.91-1.8Q774.91-1.95 775.74-2.3 776.56-2.65 776.79-3.48 777.01-4.3 777.01-6.35L777.01-6.35 777.01-22.9Q773.86-22.8 772.76-22.55 771.66-22.3 771.14-21.38 770.61-20.45 770.26-17.9L770.26-17.9 767.91-17.75Q768.01-18.4 768.24-20.63 768.46-22.85 768.51-25L768.51-25 768.91-25.35 772.46-24.95 785.21-24.95 788.86-25.35 789.26-25Q789.31-22.8 789.51-20.65 789.71-18.5 789.81-17.9L789.81-17.9 787.51-17.75Q787.11-20.35 786.59-21.33 786.06-22.3 785.04-22.55 784.01-22.8 781.11-22.9L781.11-22.9Q780.86-20.5 780.66-14.93 780.46-9.35 780.46-4.65L780.46-4.65Q780.46-3.2 781.01-2.6 781.56-2 782.81-2L782.81-2Q783.71-2 784.29-2.05 784.86-2.1 785.01-2.1L785.01-2.1 785.16-1.95 784.81 0.15Q784.11 0.15 782.21 0.08 780.31 0 778.51 0L778.51 0Q776.71 0 774.96 0.08 773.21 0.15 772.56 0.2L772.56 0.2ZM797.11 0.45L797.41-1.6Q798.91-1.85 799.61-2.25 800.31-2.65 800.51-3.4 800.71-4.15 800.71-5.65L800.71-5.65 800.71-7.2Q800.71-8.35 800.46-9.25 800.21-10.15 799.51-11.5L799.51-11.5 795.76-18.7Q794.81-20.5 794.31-21.23 793.81-21.95 793.01-22.4 792.21-22.85 790.71-23L790.71-23 790.61-23.2 790.91-25Q791.36-25 792.74-24.95 794.11-24.9 795.61-24.9L795.61-24.9Q797.01-24.9 799.01-25.03 801.01-25.15 801.61-25.2L801.61-25.2 801.76-24.9 801.61-23.25Q799.91-23.15 799.29-22.88 798.66-22.6 798.66-21.9L798.66-21.9Q798.66-21.25 800.44-17.6 802.21-13.95 802.96-12.5L802.96-12.5 803.21-12.5 807.51-20.2Q808.16-21.35 808.16-22.1L808.16-22.1Q808.16-23.05 805.71-23.2L805.71-23.2 805.61-23.35 805.86-25.15Q806.16-25.15 807.86-25.03 809.56-24.9 810.66-24.9L810.66-24.9Q811.96-24.9 813.06-24.95 814.16-25 814.56-25.05L814.56-25.05 814.71-24.75 814.46-23.05Q813.11-22.75 812.36-22.25 811.61-21.75 811.04-20.95 810.46-20.15 809.16-18L809.16-18 805.11-11.1Q804.56-10.05 804.41-8.8 804.26-7.55 804.26-4.3L804.26-4.3Q804.26-3 804.66-2.5 805.06-2 806.11-2L806.11-2Q806.76-2 807.34-2.05 807.91-2.1 808.11-2.1L808.11-2.1 808.21-1.95 807.81 0.15Q807.21 0.1 805.56 0.05 803.91 0 802.21 0L802.21 0Q800.91 0 799.26 0.18 797.61 0.35 797.11 0.45L797.11 0.45Z" opacity="1" transform="matrix(1,0,0,1,0,0)" fill="#ecab55" class="slogan-text-1" data-fill-palette-color="secondary" id="text-1"></path></svg></g></svg></g></svg></g></svg></g><g transform="matrix(1,0,0,1,95.21977076490738,0)"><svg viewBox="0 0 205.08045847018522 205.08045847018522" height="205.08045847018522" width="205.08045847018522"><g><svg xmlns="http://www.w3.org/2000/svg" xmlns:xlink="http://www.w3.org/1999/xlink" version="1.1" x="0" y="0" viewBox="24.200000000000003 24.200000000000003 51.599999999999994 51.599999999999994" style="enable-background:new 0 0 100 100;" xml:space="preserve" height="205.08045847018522" width="205.08045847018522" class="icon-icon-0" data-fill-palette-color="accent" id="icon-0"><g fill="#ecab55" data-fill-palette-color="accent"><rect x="42.3" y="49.1" transform="matrix(0.2934 -0.956 0.956 0.2934 -12.4786 83.2242)" width="15.6" height="2" fill="#ecab55" data-fill-palette-color="accent"></rect><polygon points="43.4,44.4 37.7,50.2 43.4,55.9 44.8,54.5 40.5,50.2 44.8,45.8  " fill="#ecab55" data-fill-palette-color="accent"></polygon><polygon points="54.7,45.8 59,50.2 54.7,54.5 56.1,55.9 61.8,50.2 56.1,44.4  " fill="#ecab55" data-fill-palette-color="accent"></polygon><path d="M62 33.9c-0.2-0.2-0.4-0.3-0.7-0.3H38.8c-0.3 0-0.5 0.1-0.7 0.3l-4.4 4.4c-0.2 0.2-0.3 0.4-0.3 0.7v22.3c0 0.3 0.1 0.5 0.3 0.7l4.4 4.4c0.2 0.2 0.4 0.3 0.7 0.3h22.5c0.3 0 0.5-0.1 0.7-0.3l4.4-4.4c0.2-0.2 0.3-0.4 0.3-0.7V39c0-0.3-0.1-0.5-0.3-0.7L62 33.9zM64.7 60.9l-3.8 3.8H39.2l-3.8-3.8V39.4l3.8-3.8h21.7l3.8 3.8V60.9z" fill="#ecab55" data-fill-palette-color="accent"></path><path d="M29.3 39.8h-4.1c-0.5 0-1 0.4-1 1 0 0.5 0.4 1 1 1h4.1c0.5 0 1-0.4 1-1C30.3 40.2 29.9 39.8 29.3 39.8z" fill="#ecab55" data-fill-palette-color="accent"></path><path d="M29.3 44.5h-4.1c-0.5 0-1 0.4-1 1 0 0.5 0.4 1 1 1h4.1c0.5 0 1-0.4 1-1C30.3 44.9 29.9 44.5 29.3 44.5z" fill="#ecab55" data-fill-palette-color="accent"></path><path d="M29.3 49.2h-4.1c-0.5 0-1 0.4-1 1 0 0.5 0.4 1 1 1h4.1c0.5 0 1-0.4 1-1C30.3 49.6 29.9 49.2 29.3 49.2z" fill="#ecab55" data-fill-palette-color="accent"></path><path d="M29.3 53.9h-4.1c-0.5 0-1 0.4-1 1 0 0.5 0.4 1 1 1h4.1c0.5 0 1-0.4 1-1C30.3 54.3 29.9 53.9 29.3 53.9z" fill="#ecab55" data-fill-palette-color="accent"></path><path d="M29.3 58.6h-4.1c-0.5 0-1 0.4-1 1 0 0.5 0.4 1 1 1h4.1c0.5 0 1-0.4 1-1C30.3 59 29.9 58.6 29.3 58.6z" fill="#ecab55" data-fill-palette-color="accent"></path><path d="M70.7 41.7h4.1c0.5 0 1-0.4 1-1 0-0.5-0.4-1-1-1h-4.1c-0.5 0-1 0.4-1 1C69.7 41.3 70.1 41.7 70.7 41.7z" fill="#ecab55" data-fill-palette-color="accent"></path><path d="M74.7 44.5h-4.1c-0.5 0-1 0.4-1 1 0 0.5 0.4 1 1 1h4.1c0.5 0 1-0.4 1-1C75.7 44.9 75.3 44.5 74.7 44.5z" fill="#ecab55" data-fill-palette-color="accent"></path><path d="M74.7 49.2h-4.1c-0.5 0-1 0.4-1 1 0 0.5 0.4 1 1 1h4.1c0.5 0 1-0.4 1-1C75.7 49.6 75.3 49.2 74.7 49.2z" fill="#ecab55" data-fill-palette-color="accent"></path><path d="M74.7 53.9h-4.1c-0.5 0-1 0.4-1 1 0 0.5 0.4 1 1 1h4.1c0.5 0 1-0.4 1-1C75.7 54.3 75.3 53.9 74.7 53.9z" fill="#ecab55" data-fill-palette-color="accent"></path><path d="M74.7 58.6h-4.1c-0.5 0-1 0.4-1 1 0 0.5 0.4 1 1 1h4.1c0.5 0 1-0.4 1-1C75.7 59 75.3 58.6 74.7 58.6z" fill="#ecab55" data-fill-palette-color="accent"></path><path d="M40.6 69.7c-0.5 0-1 0.4-1 1v4.1c0 0.5 0.4 1 1 1 0.5 0 1-0.4 1-1v-4.1C41.6 70.1 41.2 69.7 40.6 69.7z" fill="#ecab55" data-fill-palette-color="accent"></path><path d="M45.3 69.7c-0.5 0-1 0.4-1 1v4.1c0 0.5 0.4 1 1 1 0.5 0 1-0.4 1-1v-4.1C46.3 70.1 45.8 69.7 45.3 69.7z" fill="#ecab55" data-fill-palette-color="accent"></path><path d="M50 69.7c-0.5 0-1 0.4-1 1v4.1c0 0.5 0.4 1 1 1 0.5 0 1-0.4 1-1v-4.1C51 70.1 50.5 69.7 50 69.7z" fill="#ecab55" data-fill-palette-color="accent"></path><path d="M54.7 69.7c-0.5 0-1 0.4-1 1v4.1c0 0.5 0.4 1 1 1 0.5 0 1-0.4 1-1v-4.1C55.7 70.1 55.2 69.7 54.7 69.7z" fill="#ecab55" data-fill-palette-color="accent"></path><path d="M59.4 69.7c-0.5 0-1 0.4-1 1v4.1c0 0.5 0.4 1 1 1 0.5 0 1-0.4 1-1v-4.1C60.4 70.1 59.9 69.7 59.4 69.7z" fill="#ecab55" data-fill-palette-color="accent"></path><path d="M40.6 30.3c0.5 0 1-0.4 1-1v-4.1c0-0.5-0.4-1-1-1-0.5 0-1 0.4-1 1v4.1C39.6 29.9 40.1 30.3 40.6 30.3z" fill="#ecab55" data-fill-palette-color="accent"></path><path d="M45.3 30.3c0.5 0 1-0.4 1-1v-4.1c0-0.5-0.4-1-1-1-0.5 0-1 0.4-1 1v4.1C44.3 29.9 44.8 30.3 45.3 30.3z" fill="#ecab55" data-fill-palette-color="accent"></path><path d="M50 30.3c0.5 0 1-0.4 1-1v-4.1c0-0.5-0.4-1-1-1-0.5 0-1 0.4-1 1v4.1C49 29.9 49.5 30.3 50 30.3z" fill="#ecab55" data-fill-palette-color="accent"></path><path d="M54.7 30.3c0.5 0 1-0.4 1-1v-4.1c0-0.5-0.4-1-1-1-0.5 0-1 0.4-1 1v4.1C53.7 29.9 54.2 30.3 54.7 30.3z" fill="#ecab55" data-fill-palette-color="accent"></path><path d="M59.4 30.3c0.5 0 1-0.4 1-1v-4.1c0-0.5-0.4-1-1-1-0.5 0-1 0.4-1 1v4.1C58.4 29.9 58.8 30.3 59.4 30.3z" fill="#ecab55" data-fill-palette-color="accent"></path></g></svg></g></svg></g><g></g></svg></g><defs></defs></svg><rect width="308.0109377127057" height="327.2" fill="none" stroke="none" visibility="hidden"></rect></g></svg></g></svg>